<?xml version="1.0" encoding="UTF-8"?>
<svg xmlns="http://www.w3.org/2000/svg" width="666" height="666" viewBox="0 0 666 666" fill="none">
  <rect width="666" height="666" rx="48" fill="#ffffff" />
  <rect
    x="36"
    y="36"
    width="594"
    height="594"
    rx="36"
    fill="none"
    stroke="rgba(59,130,246,0.14)"
    stroke-width="2"
  />
  
    <g>
      <rect x="72" y="72" width="126" height="126" rx="18" fill="#050814"/>
      <rect x="90" y="90" width="90" height="90" rx="14" fill="#ffffff"/>
      <rect x="108" y="108" width="54" height="54" rx="8" fill="#050814"/>
    </g>
  

    <g>
      <rect x="468" y="72" width="126" height="126" rx="18" fill="#050814"/>
      <rect x="486" y="90" width="90" height="90" rx="14" fill="#ffffff"/>
      <rect x="504" y="108" width="54" height="54" rx="8" fill="#050814"/>
    </g>
  

    <g>
      <rect x="72" y="468" width="126" height="126" rx="18" fill="#050814"/>
      <rect x="90" y="486" width="90" height="90" rx="14" fill="#ffffff"/>
      <rect x="108" y="504" width="54" height="54" rx="8" fill="#050814"/>
    </g>
  
  <rect x="217" y="73" width="16" height="16" rx="6" fill="#050814"/>
<rect x="235" y="73" width="16" height="16" rx="8" fill="#050814"/>
<rect x="253" y="73" width="16" height="16" rx="8" fill="#050814"/>
<rect x="361" y="73" width="16" height="16" rx="8" fill="#050814"/>
<rect x="433" y="73" width="16" height="16" rx="8" fill="#050814"/>
<rect x="217" y="91" width="16" height="16" rx="8" fill="#050814"/>
<rect x="271" y="91" width="16" height="16" rx="6" fill="#050814"/>
<rect x="289" y="91" width="16" height="16" rx="6" fill="#050814"/>
<rect x="325" y="91" width="16" height="16" rx="6" fill="#050814"/>
<rect x="343" y="91" width="16" height="16" rx="8" fill="#050814"/>
<rect x="361" y="91" width="16" height="16" rx="6" fill="#050814"/>
<rect x="379" y="91" width="16" height="16" rx="6" fill="#050814"/>
<rect x="397" y="91" width="16" height="16" rx="8" fill="#050814"/>
<rect x="433" y="91" width="16" height="16" rx="8" fill="#050814"/>
<rect x="271" y="109" width="16" height="16" rx="6" fill="#050814"/>
<rect x="289" y="109" width="16" height="16" rx="6" fill="#050814"/>
<rect x="325" y="109" width="16" height="16" rx="8" fill="#050814"/>
<rect x="361" y="109" width="16" height="16" rx="6" fill="#050814"/>
<rect x="379" y="109" width="16" height="16" rx="6" fill="#050814"/>
<rect x="217" y="127" width="16" height="16" rx="6" fill="#050814"/>
<rect x="235" y="127" width="16" height="16" rx="6" fill="#050814"/>
<rect x="253" y="127" width="16" height="16" rx="8" fill="#050814"/>
<rect x="289" y="127" width="16" height="16" rx="8" fill="#050814"/>
<rect x="343" y="127" width="16" height="16" rx="8" fill="#050814"/>
<rect x="397" y="127" width="16" height="16" rx="6" fill="#050814"/>
<rect x="415" y="127" width="16" height="16" rx="8" fill="#050814"/>
<rect x="217" y="145" width="16" height="16" rx="6" fill="#050814"/>
<rect x="235" y="145" width="16" height="16" rx="6" fill="#050814"/>
<rect x="308" y="146" width="14" height="14" rx="6" fill="#050814"/>
<rect x="343" y="145" width="16" height="16" rx="6" fill="#050814"/>
<rect x="361" y="145" width="16" height="16" rx="6" fill="#050814"/>
<rect x="379" y="145" width="16" height="16" rx="6" fill="#050814"/>
<rect x="397" y="145" width="16" height="16" rx="6" fill="#050814"/>
<rect x="217" y="163" width="16" height="16" rx="6" fill="#050814"/>
<rect x="235" y="163" width="16" height="16" rx="6" fill="#050814"/>
<rect x="272" y="164" width="14" height="14" rx="6" fill="#050814"/>
<rect x="343" y="163" width="16" height="16" rx="6" fill="#050814"/>
<rect x="361" y="163" width="16" height="16" rx="6" fill="#050814"/>
<rect x="379" y="163" width="16" height="16" rx="6" fill="#050814"/>
<rect x="397" y="163" width="16" height="16" rx="6" fill="#050814"/>
<rect x="415" y="163" width="16" height="16" rx="8" fill="#050814"/>
<rect x="433" y="163" width="16" height="16" rx="6" fill="#050814"/>
<rect x="217" y="181" width="16" height="16" rx="8" fill="#050814"/>
<rect x="254" y="182" width="14" height="14" rx="6" fill="#050814"/>
<rect x="290" y="182" width="14" height="14" rx="6" fill="#050814"/>
<rect x="325" y="181" width="16" height="16" rx="8" fill="#050814"/>
<rect x="361" y="181" width="16" height="16" rx="8" fill="#050814"/>
<rect x="397" y="181" width="16" height="16" rx="8" fill="#050814"/>
<rect x="433" y="181" width="16" height="16" rx="8" fill="#050814"/>
<rect x="272" y="200" width="14" height="14" rx="6" fill="#050814"/>
<rect x="325" y="199" width="16" height="16" rx="6" fill="#050814"/>
<rect x="343" y="199" width="16" height="16" rx="8" fill="#050814"/>
<rect x="361" y="199" width="16" height="16" rx="6" fill="#050814"/>
<rect x="416" y="200" width="14" height="14" rx="6" fill="#050814"/>
<rect x="127" y="217" width="16" height="16" rx="8" fill="#050814"/>
<rect x="182" y="218" width="14" height="14" rx="6" fill="#050814"/>
<rect x="289" y="217" width="16" height="16" rx="8" fill="#050814"/>
<rect x="380" y="218" width="14" height="14" rx="6" fill="#050814"/>
<rect x="487" y="217" width="16" height="16" rx="8" fill="#050814"/>
<rect x="505" y="217" width="16" height="16" rx="6" fill="#050814"/>
<rect x="523" y="217" width="16" height="16" rx="8" fill="#050814"/>
<rect x="559" y="217" width="16" height="16" rx="8" fill="#050814"/>
<rect x="577" y="217" width="16" height="16" rx="6" fill="#050814"/>
<rect x="109" y="235" width="16" height="16" rx="6" fill="#050814"/>
<rect x="127" y="235" width="16" height="16" rx="6" fill="#050814"/>
<rect x="145" y="235" width="16" height="16" rx="8" fill="#050814"/>
<rect x="163" y="235" width="16" height="16" rx="8" fill="#050814"/>
<rect x="217" y="235" width="16" height="16" rx="6" fill="#050814"/>
<rect x="235" y="235" width="16" height="16" rx="8" fill="#050814"/>
<rect x="253" y="235" width="16" height="16" rx="6" fill="#050814"/>
<rect x="289" y="235" width="16" height="16" rx="6" fill="#050814"/>
<rect x="307" y="235" width="16" height="16" rx="6" fill="#050814"/>
<rect x="325" y="235" width="16" height="16" rx="8" fill="#050814"/>
<rect x="343" y="235" width="16" height="16" rx="8" fill="#050814"/>
<rect x="361" y="235" width="16" height="16" rx="6" fill="#050814"/>
<rect x="415" y="235" width="16" height="16" rx="8" fill="#050814"/>
<rect x="433" y="235" width="16" height="16" rx="6" fill="#050814"/>
<rect x="451" y="235" width="16" height="16" rx="8" fill="#050814"/>
<rect x="505" y="235" width="16" height="16" rx="8" fill="#050814"/>
<rect x="542" y="236" width="14" height="14" rx="6" fill="#050814"/>
<rect x="577" y="235" width="16" height="16" rx="8" fill="#050814"/>
<rect x="109" y="253" width="16" height="16" rx="6" fill="#050814"/>
<rect x="127" y="253" width="16" height="16" rx="6" fill="#050814"/>
<rect x="182" y="254" width="14" height="14" rx="6" fill="#050814"/>
<rect x="217" y="253" width="16" height="16" rx="8" fill="#050814"/>
<rect x="253" y="253" width="16" height="16" rx="8" fill="#050814"/>
<rect x="289" y="253" width="16" height="16" rx="6" fill="#050814"/>
<rect x="307" y="253" width="16" height="16" rx="6" fill="#050814"/>
<rect x="361" y="253" width="16" height="16" rx="6" fill="#050814"/>
<rect x="379" y="253" width="16" height="16" rx="6" fill="#050814"/>
<rect x="433" y="253" width="16" height="16" rx="8" fill="#050814"/>
<rect x="469" y="253" width="16" height="16" rx="8" fill="#050814"/>
<rect x="524" y="254" width="14" height="14" rx="6" fill="#050814"/>
<rect x="559" y="253" width="16" height="16" rx="8" fill="#050814"/>
<rect x="74" y="272" width="14" height="14" rx="6" fill="#050814"/>
<rect x="127" y="271" width="16" height="16" rx="8" fill="#050814"/>
<rect x="163" y="271" width="16" height="16" rx="8" fill="#050814"/>
<rect x="199" y="271" width="16" height="16" rx="6" fill="#050814"/>
<rect x="217" y="271" width="16" height="16" rx="6" fill="#050814"/>
<rect x="235" y="271" width="16" height="16" rx="8" fill="#050814"/>
<rect x="253" y="271" width="16" height="16" rx="6" fill="#050814"/>
<rect x="271" y="271" width="16" height="16" rx="8" fill="#050814"/>
<rect x="289" y="271" width="16" height="16" rx="6" fill="#050814"/>
<rect x="307" y="271" width="16" height="16" rx="6" fill="#050814"/>
<rect x="379" y="271" width="16" height="16" rx="6" fill="#050814"/>
<rect x="397" y="271" width="16" height="16" rx="6" fill="#050814"/>
<rect x="451" y="271" width="16" height="16" rx="8" fill="#050814"/>
<rect x="469" y="271" width="16" height="16" rx="6" fill="#050814"/>
<rect x="487" y="271" width="16" height="16" rx="6" fill="#050814"/>
<rect x="505" y="271" width="16" height="16" rx="8" fill="#050814"/>
<rect x="541" y="271" width="16" height="16" rx="8" fill="#050814"/>
<rect x="559" y="271" width="16" height="16" rx="6" fill="#050814"/>
<rect x="91" y="289" width="16" height="16" rx="8" fill="#050814"/>
<rect x="127" y="289" width="16" height="16" rx="6" fill="#050814"/>
<rect x="145" y="289" width="16" height="16" rx="8" fill="#050814"/>
<rect x="163" y="289" width="16" height="16" rx="6" fill="#050814"/>
<rect x="181" y="289" width="16" height="16" rx="8" fill="#050814"/>
<rect x="199" y="289" width="16" height="16" rx="6" fill="#050814"/>
<rect x="253" y="289" width="16" height="16" rx="8" fill="#050814"/>
<rect x="397" y="289" width="16" height="16" rx="6" fill="#050814"/>
<rect x="415" y="289" width="16" height="16" rx="6" fill="#050814"/>
<rect x="469" y="289" width="16" height="16" rx="6" fill="#050814"/>
<rect x="487" y="289" width="16" height="16" rx="6" fill="#050814"/>
<rect x="523" y="289" width="16" height="16" rx="8" fill="#050814"/>
<rect x="91" y="307" width="16" height="16" rx="8" fill="#050814"/>
<rect x="163" y="307" width="16" height="16" rx="8" fill="#050814"/>
<rect x="415" y="307" width="16" height="16" rx="6" fill="#050814"/>
<rect x="433" y="307" width="16" height="16" rx="8" fill="#050814"/>
<rect x="451" y="307" width="16" height="16" rx="8" fill="#050814"/>
<rect x="487" y="307" width="16" height="16" rx="8" fill="#050814"/>
<rect x="523" y="307" width="16" height="16" rx="8" fill="#050814"/>
<rect x="560" y="308" width="14" height="14" rx="6" fill="#050814"/>
<rect x="91" y="325" width="16" height="16" rx="8" fill="#050814"/>
<rect x="127" y="325" width="16" height="16" rx="6" fill="#050814"/>
<rect x="145" y="325" width="16" height="16" rx="8" fill="#050814"/>
<rect x="163" y="325" width="16" height="16" rx="6" fill="#050814"/>
<rect x="181" y="325" width="16" height="16" rx="8" fill="#050814"/>
<rect x="199" y="325" width="16" height="16" rx="8" fill="#050814"/>
<rect x="217" y="325" width="16" height="16" rx="8" fill="#050814"/>
<rect x="379" y="325" width="16" height="16" rx="8" fill="#050814"/>
<rect x="470" y="326" width="14" height="14" rx="6" fill="#050814"/>
<rect x="578" y="326" width="14" height="14" rx="6" fill="#050814"/>
<rect x="73" y="343" width="16" height="16" rx="8" fill="#050814"/>
<rect x="127" y="343" width="16" height="16" rx="8" fill="#050814"/>
<rect x="163" y="343" width="16" height="16" rx="8" fill="#050814"/>
<rect x="235" y="343" width="16" height="16" rx="8" fill="#050814"/>
<rect x="253" y="343" width="16" height="16" rx="8" fill="#050814"/>
<rect x="271" y="343" width="16" height="16" rx="6" fill="#050814"/>
<rect x="379" y="343" width="16" height="16" rx="6" fill="#050814"/>
<rect x="397" y="343" width="16" height="16" rx="8" fill="#050814"/>
<rect x="434" y="344" width="14" height="14" rx="6" fill="#050814"/>
<rect x="488" y="344" width="14" height="14" rx="6" fill="#050814"/>
<rect x="559" y="343" width="16" height="16" rx="8" fill="#050814"/>
<rect x="73" y="361" width="16" height="16" rx="6" fill="#050814"/>
<rect x="91" y="361" width="16" height="16" rx="6" fill="#050814"/>
<rect x="109" y="361" width="16" height="16" rx="6" fill="#050814"/>
<rect x="127" y="361" width="16" height="16" rx="6" fill="#050814"/>
<rect x="145" y="361" width="16" height="16" rx="6" fill="#050814"/>
<rect x="163" y="361" width="16" height="16" rx="6" fill="#050814"/>
<rect x="181" y="361" width="16" height="16" rx="8" fill="#050814"/>
<rect x="218" y="362" width="14" height="14" rx="6" fill="#050814"/>
<rect x="271" y="361" width="16" height="16" rx="6" fill="#050814"/>
<rect x="415" y="361" width="16" height="16" rx="8" fill="#050814"/>
<rect x="506" y="362" width="14" height="14" rx="6" fill="#050814"/>
<rect x="559" y="361" width="16" height="16" rx="8" fill="#050814"/>
<rect x="91" y="379" width="16" height="16" rx="6" fill="#050814"/>
<rect x="109" y="379" width="16" height="16" rx="6" fill="#050814"/>
<rect x="127" y="379" width="16" height="16" rx="6" fill="#050814"/>
<rect x="145" y="379" width="16" height="16" rx="6" fill="#050814"/>
<rect x="307" y="379" width="16" height="16" rx="6" fill="#050814"/>
<rect x="325" y="379" width="16" height="16" rx="6" fill="#050814"/>
<rect x="379" y="379" width="16" height="16" rx="6" fill="#050814"/>
<rect x="397" y="379" width="16" height="16" rx="6" fill="#050814"/>
<rect x="415" y="379" width="16" height="16" rx="6" fill="#050814"/>
<rect x="433" y="379" width="16" height="16" rx="8" fill="#050814"/>
<rect x="541" y="379" width="16" height="16" rx="8" fill="#050814"/>
<rect x="559" y="379" width="16" height="16" rx="6" fill="#050814"/>
<rect x="577" y="379" width="16" height="16" rx="6" fill="#050814"/>
<rect x="74" y="398" width="14" height="14" rx="6" fill="#050814"/>
<rect x="109" y="397" width="16" height="16" rx="8" fill="#050814"/>
<rect x="145" y="397" width="16" height="16" rx="8" fill="#050814"/>
<rect x="182" y="398" width="14" height="14" rx="6" fill="#050814"/>
<rect x="217" y="397" width="16" height="16" rx="6" fill="#050814"/>
<rect x="235" y="397" width="16" height="16" rx="8" fill="#050814"/>
<rect x="271" y="397" width="16" height="16" rx="8" fill="#050814"/>
<rect x="307" y="397" width="16" height="16" rx="6" fill="#050814"/>
<rect x="325" y="397" width="16" height="16" rx="6" fill="#050814"/>
<rect x="343" y="397" width="16" height="16" rx="6" fill="#050814"/>
<rect x="379" y="397" width="16" height="16" rx="6" fill="#050814"/>
<rect x="397" y="397" width="16" height="16" rx="6" fill="#050814"/>
<rect x="452" y="398" width="14" height="14" rx="6" fill="#050814"/>
<rect x="523" y="397" width="16" height="16" rx="8" fill="#050814"/>
<rect x="559" y="397" width="16" height="16" rx="6" fill="#050814"/>
<rect x="577" y="397" width="16" height="16" rx="6" fill="#050814"/>
<rect x="127" y="415" width="16" height="16" rx="8" fill="#050814"/>
<rect x="199" y="415" width="16" height="16" rx="6" fill="#050814"/>
<rect x="217" y="415" width="16" height="16" rx="6" fill="#050814"/>
<rect x="253" y="415" width="16" height="16" rx="8" fill="#050814"/>
<rect x="271" y="415" width="16" height="16" rx="6" fill="#050814"/>
<rect x="289" y="415" width="16" height="16" rx="8" fill="#050814"/>
<rect x="307" y="415" width="16" height="16" rx="6" fill="#050814"/>
<rect x="325" y="415" width="16" height="16" rx="6" fill="#050814"/>
<rect x="343" y="415" width="16" height="16" rx="6" fill="#050814"/>
<rect x="379" y="415" width="16" height="16" rx="8" fill="#050814"/>
<rect x="523" y="415" width="16" height="16" rx="8" fill="#050814"/>
<rect x="577" y="415" width="16" height="16" rx="8" fill="#050814"/>
<rect x="74" y="434" width="14" height="14" rx="6" fill="#050814"/>
<rect x="127" y="433" width="16" height="16" rx="8" fill="#050814"/>
<rect x="181" y="433" width="16" height="16" rx="8" fill="#050814"/>
<rect x="199" y="433" width="16" height="16" rx="6" fill="#050814"/>
<rect x="217" y="433" width="16" height="16" rx="6" fill="#050814"/>
<rect x="362" y="434" width="14" height="14" rx="6" fill="#050814"/>
<rect x="398" y="434" width="14" height="14" rx="6" fill="#050814"/>
<rect x="433" y="433" width="16" height="16" rx="6" fill="#050814"/>
<rect x="451" y="433" width="16" height="16" rx="8" fill="#050814"/>
<rect x="469" y="433" width="16" height="16" rx="8" fill="#050814"/>
<rect x="487" y="433" width="16" height="16" rx="8" fill="#050814"/>
<rect x="505" y="433" width="16" height="16" rx="6" fill="#050814"/>
<rect x="523" y="433" width="16" height="16" rx="6" fill="#050814"/>
<rect x="541" y="433" width="16" height="16" rx="8" fill="#050814"/>
<rect x="577" y="433" width="16" height="16" rx="8" fill="#050814"/>
<rect x="217" y="451" width="16" height="16" rx="6" fill="#050814"/>
<rect x="235" y="451" width="16" height="16" rx="8" fill="#050814"/>
<rect x="271" y="451" width="16" height="16" rx="6" fill="#050814"/>
<rect x="289" y="451" width="16" height="16" rx="8" fill="#050814"/>
<rect x="307" y="451" width="16" height="16" rx="8" fill="#050814"/>
<rect x="379" y="451" width="16" height="16" rx="8" fill="#050814"/>
<rect x="415" y="451" width="16" height="16" rx="8" fill="#050814"/>
<rect x="433" y="451" width="16" height="16" rx="6" fill="#050814"/>
<rect x="505" y="451" width="16" height="16" rx="8" fill="#050814"/>
<rect x="559" y="451" width="16" height="16" rx="6" fill="#050814"/>
<rect x="577" y="451" width="16" height="16" rx="6" fill="#050814"/>
<rect x="271" y="469" width="16" height="16" rx="8" fill="#050814"/>
<rect x="344" y="470" width="14" height="14" rx="6" fill="#050814"/>
<rect x="379" y="469" width="16" height="16" rx="8" fill="#050814"/>
<rect x="433" y="469" width="16" height="16" rx="8" fill="#050814"/>
<rect x="470" y="470" width="14" height="14" rx="6" fill="#050814"/>
<rect x="505" y="469" width="16" height="16" rx="6" fill="#050814"/>
<rect x="523" y="469" width="16" height="16" rx="8" fill="#050814"/>
<rect x="541" y="469" width="16" height="16" rx="6" fill="#050814"/>
<rect x="559" y="469" width="16" height="16" rx="6" fill="#050814"/>
<rect x="235" y="487" width="16" height="16" rx="6" fill="#050814"/>
<rect x="253" y="487" width="16" height="16" rx="8" fill="#050814"/>
<rect x="289" y="487" width="16" height="16" rx="8" fill="#050814"/>
<rect x="307" y="487" width="16" height="16" rx="8" fill="#050814"/>
<rect x="325" y="487" width="16" height="16" rx="6" fill="#050814"/>
<rect x="379" y="487" width="16" height="16" rx="6" fill="#050814"/>
<rect x="397" y="487" width="16" height="16" rx="6" fill="#050814"/>
<rect x="433" y="487" width="16" height="16" rx="8" fill="#050814"/>
<rect x="505" y="487" width="16" height="16" rx="8" fill="#050814"/>
<rect x="541" y="487" width="16" height="16" rx="8" fill="#050814"/>
<rect x="235" y="505" width="16" height="16" rx="8" fill="#050814"/>
<rect x="271" y="505" width="16" height="16" rx="8" fill="#050814"/>
<rect x="325" y="505" width="16" height="16" rx="6" fill="#050814"/>
<rect x="343" y="505" width="16" height="16" rx="8" fill="#050814"/>
<rect x="379" y="505" width="16" height="16" rx="6" fill="#050814"/>
<rect x="397" y="505" width="16" height="16" rx="6" fill="#050814"/>
<rect x="433" y="505" width="16" height="16" rx="6" fill="#050814"/>
<rect x="451" y="505" width="16" height="16" rx="6" fill="#050814"/>
<rect x="469" y="505" width="16" height="16" rx="6" fill="#050814"/>
<rect x="487" y="505" width="16" height="16" rx="8" fill="#050814"/>
<rect x="505" y="505" width="16" height="16" rx="6" fill="#050814"/>
<rect x="523" y="505" width="16" height="16" rx="6" fill="#050814"/>
<rect x="559" y="505" width="16" height="16" rx="8" fill="#050814"/>
<rect x="577" y="505" width="16" height="16" rx="6" fill="#050814"/>
<rect x="217" y="523" width="16" height="16" rx="8" fill="#050814"/>
<rect x="235" y="523" width="16" height="16" rx="6" fill="#050814"/>
<rect x="271" y="523" width="16" height="16" rx="8" fill="#050814"/>
<rect x="307" y="523" width="16" height="16" rx="8" fill="#050814"/>
<rect x="362" y="524" width="14" height="14" rx="6" fill="#050814"/>
<rect x="397" y="523" width="16" height="16" rx="6" fill="#050814"/>
<rect x="415" y="523" width="16" height="16" rx="6" fill="#050814"/>
<rect x="433" y="523" width="16" height="16" rx="6" fill="#050814"/>
<rect x="451" y="523" width="16" height="16" rx="6" fill="#050814"/>
<rect x="469" y="523" width="16" height="16" rx="6" fill="#050814"/>
<rect x="505" y="523" width="16" height="16" rx="6" fill="#050814"/>
<rect x="523" y="523" width="16" height="16" rx="6" fill="#050814"/>
<rect x="577" y="523" width="16" height="16" rx="8" fill="#050814"/>
<rect x="271" y="541" width="16" height="16" rx="6" fill="#050814"/>
<rect x="289" y="541" width="16" height="16" rx="8" fill="#050814"/>
<rect x="307" y="541" width="16" height="16" rx="6" fill="#050814"/>
<rect x="415" y="541" width="16" height="16" rx="6" fill="#050814"/>
<rect x="433" y="541" width="16" height="16" rx="6" fill="#050814"/>
<rect x="505" y="541" width="16" height="16" rx="8" fill="#050814"/>
<rect x="577" y="541" width="16" height="16" rx="8" fill="#050814"/>
<rect x="235" y="559" width="16" height="16" rx="8" fill="#050814"/>
<rect x="307" y="559" width="16" height="16" rx="6" fill="#050814"/>
<rect x="325" y="559" width="16" height="16" rx="8" fill="#050814"/>
<rect x="343" y="559" width="16" height="16" rx="8" fill="#050814"/>
<rect x="380" y="560" width="14" height="14" rx="6" fill="#050814"/>
<rect x="415" y="559" width="16" height="16" rx="8" fill="#050814"/>
<rect x="469" y="559" width="16" height="16" rx="6" fill="#050814"/>
<rect x="487" y="559" width="16" height="16" rx="8" fill="#050814"/>
<rect x="559" y="559" width="16" height="16" rx="8" fill="#050814"/>
<rect x="235" y="577" width="16" height="16" rx="6" fill="#050814"/>
<rect x="253" y="577" width="16" height="16" rx="8" fill="#050814"/>
<rect x="290" y="578" width="14" height="14" rx="6" fill="#050814"/>
<rect x="362" y="578" width="14" height="14" rx="6" fill="#050814"/>
<rect x="469" y="577" width="16" height="16" rx="8" fill="#050814"/>
<rect x="505" y="577" width="16" height="16" rx="8" fill="#050814"/>
<rect x="523" y="577" width="16" height="16" rx="8" fill="#050814"/>
<rect x="559" y="577" width="16" height="16" rx="8" fill="#050814"/>
  
    <g>
      <rect
        x="288"
        y="288"
        width="90"
        height="90"
        rx="18"
        fill="#ffffff"
      />
      <g fill="#050814">
        <rect x="313" y="299" width="13" height="68" rx="5" />
        <rect x="313" y="299" width="42" height="10" rx="5" />
        <rect x="313" y="325" width="31" height="10" rx="5" />
      </g>
      <rect
        x="302"
        y="302"
        width="62"
        height="62"
        rx="16"
        fill="none"
        stroke="rgba(5,8,20,0.10)"
        stroke-width="3"
      />
    </g>
  
</svg>