<?xml version="1.0" encoding="UTF-8"?>
<svg xmlns="http://www.w3.org/2000/svg" width="666" height="666" viewBox="0 0 666 666" fill="none">
  <rect width="666" height="666" rx="48" fill="#ffffff" />
  <rect
    x="36"
    y="36"
    width="594"
    height="594"
    rx="36"
    fill="none"
    stroke="rgba(249,115,22,0.18)"
    stroke-width="2"
  />
  
      <g>
        <rect x="72" y="72" width="126" height="126" rx="18" fill="#050814"/>
        <rect x="90" y="90" width="90" height="90" rx="12" fill="#ffffff"/>
        <path d="M 135 102.6 L 167.39999999999998 135 L 135 167.39999999999998 L 102.6 135 Z" fill="#050814" />
      </g>
    

      <g>
        <rect x="468" y="72" width="126" height="126" rx="18" fill="#050814"/>
        <rect x="486" y="90" width="90" height="90" rx="12" fill="#ffffff"/>
        <path d="M 531 102.6 L 563.4 135 L 531 167.39999999999998 L 498.6 135 Z" fill="#050814" />
      </g>
    

      <g>
        <rect x="72" y="468" width="126" height="126" rx="18" fill="#050814"/>
        <rect x="90" y="486" width="90" height="90" rx="12" fill="#ffffff"/>
        <path d="M 135 498.6 L 167.39999999999998 531 L 135 563.4 L 102.6 531 Z" fill="#050814" />
      </g>
    
  <path fill="#050814" d="M 225 74.2
      L 231.8 81
      L 225 87.8
      L 218.2 81 Z" />
<circle cx="243" cy="81" r="6.12" fill="#050814" />
<circle cx="261" cy="81" r="6.12" fill="#050814" />
<rect x="361.2" y="73.2" width="15.6" height="15.6" rx="6" fill="#050814"/>
<path fill="#050814" d="M 441 74.2
      L 447.8 81
      L 441 87.8
      L 434.2 81 Z" />
<circle cx="225" cy="99" r="6.12" fill="#050814" />
<rect x="271.2" y="91.2" width="15.6" height="15.6" rx="6" fill="#050814"/>
<rect x="289.2" y="91.2" width="15.6" height="15.6" rx="6" fill="#050814"/>
<circle cx="333" cy="99" r="6.12" fill="#050814" />
<rect x="343.2" y="91.2" width="15.6" height="15.6" rx="6" fill="#050814"/>
<path fill="#050814" d="M 369 92.2
      L 375.8 99
      L 369 105.8
      L 362.2 99 Z" />
<circle cx="387" cy="99" r="6.12" fill="#050814" />
<circle cx="405" cy="99" r="6.12" fill="#050814" />
<circle cx="441" cy="99" r="6.12" fill="#050814" />
<circle cx="279" cy="117" r="6.12" fill="#050814" />
<circle cx="297" cy="117" r="6.12" fill="#050814" />
<path fill="#050814" d="M 333 110.2
      L 339.8 117
      L 333 123.8
      L 326.2 117 Z" />
<circle cx="369" cy="117" r="6.12" fill="#050814" />
<path fill="#050814" d="M 387 110.2
      L 393.8 117
      L 387 123.8
      L 380.2 117 Z" />
<path fill="#050814" d="M 225 128.2
      L 231.8 135
      L 225 141.8
      L 218.2 135 Z" />
<circle cx="243" cy="135" r="6.12" fill="#050814" />
<path fill="#050814" d="M 261 128.2
      L 267.8 135
      L 261 141.8
      L 254.2 135 Z" />
<rect x="289.2" y="127.2" width="15.6" height="15.6" rx="6" fill="#050814"/>
<path fill="#050814" d="M 351 128.2
      L 357.8 135
      L 351 141.8
      L 344.2 135 Z" />
<circle cx="405" cy="135" r="6.12" fill="#050814" />
<circle cx="423" cy="135" r="6.12" fill="#050814" />
<path fill="#050814" d="M 225 146.2
      L 231.8 153
      L 225 159.8
      L 218.2 153 Z" />
<circle cx="243" cy="153" r="6.12" fill="#050814" />
<circle cx="315" cy="153" r="6.12" fill="#050814" />
<circle cx="351" cy="153" r="6.12" fill="#050814" />
<path fill="#050814" d="M 369 146.2
      L 375.8 153
      L 369 159.8
      L 362.2 153 Z" />
<circle cx="387" cy="153" r="6.12" fill="#050814" />
<path fill="#050814" d="M 405 146.2
      L 411.8 153
      L 405 159.8
      L 398.2 153 Z" />
<circle cx="225" cy="171" r="6.12" fill="#050814" />
<path fill="#050814" d="M 243 164.2
      L 249.8 171
      L 243 177.8
      L 236.2 171 Z" />
<circle cx="279" cy="171" r="6.12" fill="#050814" />
<rect x="343.2" y="163.2" width="15.6" height="15.6" rx="6" fill="#050814"/>
<path fill="#050814" d="M 369 164.2
      L 375.8 171
      L 369 177.8
      L 362.2 171 Z" />
<circle cx="387" cy="171" r="6.12" fill="#050814" />
<rect x="397.2" y="163.2" width="15.6" height="15.6" rx="6" fill="#050814"/>
<path fill="#050814" d="M 423 164.2
      L 429.8 171
      L 423 177.8
      L 416.2 171 Z" />
<circle cx="441" cy="171" r="6.12" fill="#050814" />
<rect x="217.2" y="181.2" width="15.6" height="15.6" rx="6" fill="#050814"/>
<path fill="#050814" d="M 261 182.2
      L 267.8 189
      L 261 195.8
      L 254.2 189 Z" />
<path fill="#050814" d="M 297 182.2
      L 303.8 189
      L 297 195.8
      L 290.2 189 Z" />
<circle cx="333" cy="189" r="6.12" fill="#050814" />
<circle cx="369" cy="189" r="6.12" fill="#050814" />
<rect x="397.2" y="181.2" width="15.6" height="15.6" rx="6" fill="#050814"/>
<path fill="#050814" d="M 441 182.2
      L 447.8 189
      L 441 195.8
      L 434.2 189 Z" />
<rect x="271.2" y="199.2" width="15.6" height="15.6" rx="6" fill="#050814"/>
<rect x="325.2" y="199.2" width="15.6" height="15.6" rx="6" fill="#050814"/>
<rect x="343.2" y="199.2" width="15.6" height="15.6" rx="6" fill="#050814"/>
<rect x="361.2" y="199.2" width="15.6" height="15.6" rx="6" fill="#050814"/>
<circle cx="423" cy="207" r="6.12" fill="#050814" />
<circle cx="135" cy="225" r="6.12" fill="#050814" />
<path fill="#050814" d="M 189 218.2
      L 195.8 225
      L 189 231.8
      L 182.2 225 Z" />
<circle cx="297" cy="225" r="6.12" fill="#050814" />
<circle cx="387" cy="225" r="6.12" fill="#050814" />
<rect x="487.2" y="217.2" width="15.6" height="15.6" rx="6" fill="#050814"/>
<rect x="505.2" y="217.2" width="15.6" height="15.6" rx="6" fill="#050814"/>
<rect x="523.2" y="217.2" width="15.6" height="15.6" rx="6" fill="#050814"/>
<circle cx="567" cy="225" r="6.12" fill="#050814" />
<rect x="577.2" y="217.2" width="15.6" height="15.6" rx="6" fill="#050814"/>
<rect x="109.2" y="235.2" width="15.6" height="15.6" rx="6" fill="#050814"/>
<rect x="127.2" y="235.2" width="15.6" height="15.6" rx="6" fill="#050814"/>
<path fill="#050814" d="M 153 236.2
      L 159.8 243
      L 153 249.8
      L 146.2 243 Z" />
<circle cx="171" cy="243" r="6.12" fill="#050814" />
<circle cx="225" cy="243" r="6.12" fill="#050814" />
<circle cx="243" cy="243" r="6.12" fill="#050814" />
<circle cx="261" cy="243" r="6.12" fill="#050814" />
<path fill="#050814" d="M 297 236.2
      L 303.8 243
      L 297 249.8
      L 290.2 243 Z" />
<rect x="307.2" y="235.2" width="15.6" height="15.6" rx="6" fill="#050814"/>
<path fill="#050814" d="M 333 236.2
      L 339.8 243
      L 333 249.8
      L 326.2 243 Z" />
<rect x="343.2" y="235.2" width="15.6" height="15.6" rx="6" fill="#050814"/>
<rect x="361.2" y="235.2" width="15.6" height="15.6" rx="6" fill="#050814"/>
<path fill="#050814" d="M 423 236.2
      L 429.8 243
      L 423 249.8
      L 416.2 243 Z" />
<circle cx="441" cy="243" r="6.12" fill="#050814" />
<rect x="451.2" y="235.2" width="15.6" height="15.6" rx="6" fill="#050814"/>
<circle cx="513" cy="243" r="6.12" fill="#050814" />
<circle cx="549" cy="243" r="6.12" fill="#050814" />
<circle cx="585" cy="243" r="6.12" fill="#050814" />
<circle cx="117" cy="261" r="6.12" fill="#050814" />
<circle cx="135" cy="261" r="6.12" fill="#050814" />
<rect x="181.2" y="253.2" width="15.6" height="15.6" rx="6" fill="#050814"/>
<path fill="#050814" d="M 225 254.2
      L 231.8 261
      L 225 267.8
      L 218.2 261 Z" />
<rect x="253.2" y="253.2" width="15.6" height="15.6" rx="6" fill="#050814"/>
<rect x="289.2" y="253.2" width="15.6" height="15.6" rx="6" fill="#050814"/>
<path fill="#050814" d="M 315 254.2
      L 321.8 261
      L 315 267.8
      L 308.2 261 Z" />
<circle cx="369" cy="261" r="6.12" fill="#050814" />
<circle cx="387" cy="261" r="6.12" fill="#050814" />
<path fill="#050814" d="M 441 254.2
      L 447.8 261
      L 441 267.8
      L 434.2 261 Z" />
<circle cx="477" cy="261" r="6.12" fill="#050814" />
<rect x="523.2" y="253.2" width="15.6" height="15.6" rx="6" fill="#050814"/>
<path fill="#050814" d="M 567 254.2
      L 573.8 261
      L 567 267.8
      L 560.2 261 Z" />
<circle cx="81" cy="279" r="6.12" fill="#050814" />
<rect x="127.2" y="271.2" width="15.6" height="15.6" rx="6" fill="#050814"/>
<rect x="163.2" y="271.2" width="15.6" height="15.6" rx="6" fill="#050814"/>
<circle cx="207" cy="279" r="6.12" fill="#050814" />
<path fill="#050814" d="M 225 272.2
      L 231.8 279
      L 225 285.8
      L 218.2 279 Z" />
<circle cx="243" cy="279" r="6.12" fill="#050814" />
<circle cx="261" cy="279" r="6.12" fill="#050814" />
<circle cx="279" cy="279" r="6.12" fill="#050814" />
<circle cx="297" cy="279" r="6.12" fill="#050814" />
<path fill="#050814" d="M 315 272.2
      L 321.8 279
      L 315 285.8
      L 308.2 279 Z" />
<rect x="379.2" y="271.2" width="15.6" height="15.6" rx="6" fill="#050814"/>
<rect x="397.2" y="271.2" width="15.6" height="15.6" rx="6" fill="#050814"/>
<path fill="#050814" d="M 459 272.2
      L 465.8 279
      L 459 285.8
      L 452.2 279 Z" />
<circle cx="477" cy="279" r="6.12" fill="#050814" />
<path fill="#050814" d="M 495 272.2
      L 501.8 279
      L 495 285.8
      L 488.2 279 Z" />
<circle cx="513" cy="279" r="6.12" fill="#050814" />
<circle cx="549" cy="279" r="6.12" fill="#050814" />
<circle cx="567" cy="279" r="6.12" fill="#050814" />
<rect x="91.2" y="289.2" width="15.6" height="15.6" rx="6" fill="#050814"/>
<circle cx="135" cy="297" r="6.12" fill="#050814" />
<circle cx="153" cy="297" r="6.12" fill="#050814" />
<circle cx="171" cy="297" r="6.12" fill="#050814" />
<circle cx="189" cy="297" r="6.12" fill="#050814" />
<path fill="#050814" d="M 207 290.2
      L 213.8 297
      L 207 303.8
      L 200.2 297 Z" />
<rect x="253.2" y="289.2" width="15.6" height="15.6" rx="6" fill="#050814"/>
<circle cx="405" cy="297" r="6.12" fill="#050814" />
<circle cx="423" cy="297" r="6.12" fill="#050814" />
<rect x="469.2" y="289.2" width="15.6" height="15.6" rx="6" fill="#050814"/>
<circle cx="495" cy="297" r="6.12" fill="#050814" />
<rect x="523.2" y="289.2" width="15.6" height="15.6" rx="6" fill="#050814"/>
<rect x="91.2" y="307.2" width="15.6" height="15.6" rx="6" fill="#050814"/>
<rect x="163.2" y="307.2" width="15.6" height="15.6" rx="6" fill="#050814"/>
<rect x="415.2" y="307.2" width="15.6" height="15.6" rx="6" fill="#050814"/>
<rect x="433.2" y="307.2" width="15.6" height="15.6" rx="6" fill="#050814"/>
<rect x="451.2" y="307.2" width="15.6" height="15.6" rx="6" fill="#050814"/>
<circle cx="495" cy="315" r="6.12" fill="#050814" />
<path fill="#050814" d="M 531 308.2
      L 537.8 315
      L 531 321.8
      L 524.2 315 Z" />
<circle cx="567" cy="315" r="6.12" fill="#050814" />
<path fill="#050814" d="M 99 326.2
      L 105.8 333
      L 99 339.8
      L 92.2 333 Z" />
<path fill="#050814" d="M 135 326.2
      L 141.8 333
      L 135 339.8
      L 128.2 333 Z" />
<circle cx="153" cy="333" r="6.12" fill="#050814" />
<circle cx="171" cy="333" r="6.12" fill="#050814" />
<circle cx="189" cy="333" r="6.12" fill="#050814" />
<circle cx="207" cy="333" r="6.12" fill="#050814" />
<path fill="#050814" d="M 225 326.2
      L 231.8 333
      L 225 339.8
      L 218.2 333 Z" />
<rect x="379.2" y="325.2" width="15.6" height="15.6" rx="6" fill="#050814"/>
<circle cx="477" cy="333" r="6.12" fill="#050814" />
<rect x="577.2" y="325.2" width="15.6" height="15.6" rx="6" fill="#050814"/>
<circle cx="81" cy="351" r="6.12" fill="#050814" />
<circle cx="135" cy="351" r="6.12" fill="#050814" />
<rect x="163.2" y="343.2" width="15.6" height="15.6" rx="6" fill="#050814"/>
<path fill="#050814" d="M 243 344.2
      L 249.8 351
      L 243 357.8
      L 236.2 351 Z" />
<circle cx="261" cy="351" r="6.12" fill="#050814" />
<path fill="#050814" d="M 279 344.2
      L 285.8 351
      L 279 357.8
      L 272.2 351 Z" />
<rect x="379.2" y="343.2" width="15.6" height="15.6" rx="6" fill="#050814"/>
<circle cx="405" cy="351" r="6.12" fill="#050814" />
<rect x="433.2" y="343.2" width="15.6" height="15.6" rx="6" fill="#050814"/>
<rect x="487.2" y="343.2" width="15.6" height="15.6" rx="6" fill="#050814"/>
<circle cx="567" cy="351" r="6.12" fill="#050814" />
<rect x="73.2" y="361.2" width="15.6" height="15.6" rx="6" fill="#050814"/>
<rect x="91.2" y="361.2" width="15.6" height="15.6" rx="6" fill="#050814"/>
<path fill="#050814" d="M 117 362.2
      L 123.8 369
      L 117 375.8
      L 110.2 369 Z" />
<circle cx="135" cy="369" r="6.12" fill="#050814" />
<rect x="145.2" y="361.2" width="15.6" height="15.6" rx="6" fill="#050814"/>
<path fill="#050814" d="M 171 362.2
      L 177.8 369
      L 171 375.8
      L 164.2 369 Z" />
<circle cx="189" cy="369" r="6.12" fill="#050814" />
<circle cx="225" cy="369" r="6.12" fill="#050814" />
<circle cx="279" cy="369" r="6.12" fill="#050814" />
<rect x="415.2" y="361.2" width="15.6" height="15.6" rx="6" fill="#050814"/>
<path fill="#050814" d="M 513 362.2
      L 519.8 369
      L 513 375.8
      L 506.2 369 Z" />
<path fill="#050814" d="M 567 362.2
      L 573.8 369
      L 567 375.8
      L 560.2 369 Z" />
<circle cx="99" cy="387" r="6.12" fill="#050814" />
<circle cx="117" cy="387" r="6.12" fill="#050814" />
<path fill="#050814" d="M 135 380.2
      L 141.8 387
      L 135 393.8
      L 128.2 387 Z" />
<rect x="145.2" y="379.2" width="15.6" height="15.6" rx="6" fill="#050814"/>
<path fill="#050814" d="M 315 380.2
      L 321.8 387
      L 315 393.8
      L 308.2 387 Z" />
<circle cx="333" cy="387" r="6.12" fill="#050814" />
<circle cx="387" cy="387" r="6.12" fill="#050814" />
<path fill="#050814" d="M 405 380.2
      L 411.8 387
      L 405 393.8
      L 398.2 387 Z" />
<circle cx="423" cy="387" r="6.12" fill="#050814" />
<path fill="#050814" d="M 441 380.2
      L 447.8 387
      L 441 393.8
      L 434.2 387 Z" />
<circle cx="549" cy="387" r="6.12" fill="#050814" />
<rect x="559.2" y="379.2" width="15.6" height="15.6" rx="6" fill="#050814"/>
<path fill="#050814" d="M 585 380.2
      L 591.8 387
      L 585 393.8
      L 578.2 387 Z" />
<rect x="73.2" y="397.2" width="15.6" height="15.6" rx="6" fill="#050814"/>
<rect x="109.2" y="397.2" width="15.6" height="15.6" rx="6" fill="#050814"/>
<path fill="#050814" d="M 153 398.2
      L 159.8 405
      L 153 411.8
      L 146.2 405 Z" />
<path fill="#050814" d="M 189 398.2
      L 195.8 405
      L 189 411.8
      L 182.2 405 Z" />
<circle cx="225" cy="405" r="6.12" fill="#050814" />
<circle cx="243" cy="405" r="6.12" fill="#050814" />
<path fill="#050814" d="M 279 398.2
      L 285.8 405
      L 279 411.8
      L 272.2 405 Z" />
<circle cx="315" cy="405" r="6.12" fill="#050814" />
<rect x="325.2" y="397.2" width="15.6" height="15.6" rx="6" fill="#050814"/>
<rect x="343.2" y="397.2" width="15.6" height="15.6" rx="6" fill="#050814"/>
<rect x="379.2" y="397.2" width="15.6" height="15.6" rx="6" fill="#050814"/>
<path fill="#050814" d="M 405 398.2
      L 411.8 405
      L 405 411.8
      L 398.2 405 Z" />
<path fill="#050814" d="M 459 398.2
      L 465.8 405
      L 459 411.8
      L 452.2 405 Z" />
<circle cx="531" cy="405" r="6.12" fill="#050814" />
<rect x="559.2" y="397.2" width="15.6" height="15.6" rx="6" fill="#050814"/>
<path fill="#050814" d="M 585 398.2
      L 591.8 405
      L 585 411.8
      L 578.2 405 Z" />
<circle cx="135" cy="423" r="6.12" fill="#050814" />
<path fill="#050814" d="M 207 416.2
      L 213.8 423
      L 207 429.8
      L 200.2 423 Z" />
<rect x="217.2" y="415.2" width="15.6" height="15.6" rx="6" fill="#050814"/>
<rect x="253.2" y="415.2" width="15.6" height="15.6" rx="6" fill="#050814"/>
<rect x="271.2" y="415.2" width="15.6" height="15.6" rx="6" fill="#050814"/>
<path fill="#050814" d="M 297 416.2
      L 303.8 423
      L 297 429.8
      L 290.2 423 Z" />
<rect x="307.2" y="415.2" width="15.6" height="15.6" rx="6" fill="#050814"/>
<path fill="#050814" d="M 333 416.2
      L 339.8 423
      L 333 429.8
      L 326.2 423 Z" />
<circle cx="351" cy="423" r="6.12" fill="#050814" />
<circle cx="387" cy="423" r="6.12" fill="#050814" />
<rect x="523.2" y="415.2" width="15.6" height="15.6" rx="6" fill="#050814"/>
<rect x="577.2" y="415.2" width="15.6" height="15.6" rx="6" fill="#050814"/>
<path fill="#050814" d="M 81 434.2
      L 87.8 441
      L 81 447.8
      L 74.2 441 Z" />
<rect x="127.2" y="433.2" width="15.6" height="15.6" rx="6" fill="#050814"/>
<circle cx="189" cy="441" r="6.12" fill="#050814" />
<rect x="199.2" y="433.2" width="15.6" height="15.6" rx="6" fill="#050814"/>
<circle cx="225" cy="441" r="6.12" fill="#050814" />
<rect x="361.2" y="433.2" width="15.6" height="15.6" rx="6" fill="#050814"/>
<rect x="397.2" y="433.2" width="15.6" height="15.6" rx="6" fill="#050814"/>
<path fill="#050814" d="M 441 434.2
      L 447.8 441
      L 441 447.8
      L 434.2 441 Z" />
<circle cx="459" cy="441" r="6.12" fill="#050814" />
<path fill="#050814" d="M 477 434.2
      L 483.8 441
      L 477 447.8
      L 470.2 441 Z" />
<circle cx="495" cy="441" r="6.12" fill="#050814" />
<circle cx="513" cy="441" r="6.12" fill="#050814" />
<circle cx="531" cy="441" r="6.12" fill="#050814" />
<circle cx="549" cy="441" r="6.12" fill="#050814" />
<rect x="577.2" y="433.2" width="15.6" height="15.6" rx="6" fill="#050814"/>
<path fill="#050814" d="M 225 452.2
      L 231.8 459
      L 225 465.8
      L 218.2 459 Z" />
<rect x="235.2" y="451.2" width="15.6" height="15.6" rx="6" fill="#050814"/>
<rect x="271.2" y="451.2" width="15.6" height="15.6" rx="6" fill="#050814"/>
<rect x="289.2" y="451.2" width="15.6" height="15.6" rx="6" fill="#050814"/>
<path fill="#050814" d="M 315 452.2
      L 321.8 459
      L 315 465.8
      L 308.2 459 Z" />
<circle cx="387" cy="459" r="6.12" fill="#050814" />
<circle cx="423" cy="459" r="6.12" fill="#050814" />
<circle cx="441" cy="459" r="6.12" fill="#050814" />
<rect x="505.2" y="451.2" width="15.6" height="15.6" rx="6" fill="#050814"/>
<rect x="559.2" y="451.2" width="15.6" height="15.6" rx="6" fill="#050814"/>
<path fill="#050814" d="M 585 452.2
      L 591.8 459
      L 585 465.8
      L 578.2 459 Z" />
<circle cx="279" cy="477" r="6.12" fill="#050814" />
<rect x="343.2" y="469.2" width="15.6" height="15.6" rx="6" fill="#050814"/>
<rect x="379.2" y="469.2" width="15.6" height="15.6" rx="6" fill="#050814"/>
<rect x="433.2" y="469.2" width="15.6" height="15.6" rx="6" fill="#050814"/>
<circle cx="477" cy="477" r="6.12" fill="#050814" />
<path fill="#050814" d="M 513 470.2
      L 519.8 477
      L 513 483.8
      L 506.2 477 Z" />
<circle cx="531" cy="477" r="6.12" fill="#050814" />
<circle cx="549" cy="477" r="6.12" fill="#050814" />
<circle cx="567" cy="477" r="6.12" fill="#050814" />
<circle cx="243" cy="495" r="6.12" fill="#050814" />
<path fill="#050814" d="M 261 488.2
      L 267.8 495
      L 261 501.8
      L 254.2 495 Z" />
<rect x="289.2" y="487.2" width="15.6" height="15.6" rx="6" fill="#050814"/>
<rect x="307.2" y="487.2" width="15.6" height="15.6" rx="6" fill="#050814"/>
<rect x="325.2" y="487.2" width="15.6" height="15.6" rx="6" fill="#050814"/>
<path fill="#050814" d="M 387 488.2
      L 393.8 495
      L 387 501.8
      L 380.2 495 Z" />
<circle cx="405" cy="495" r="6.12" fill="#050814" />
<circle cx="441" cy="495" r="6.12" fill="#050814" />
<circle cx="513" cy="495" r="6.12" fill="#050814" />
<rect x="541.2" y="487.2" width="15.6" height="15.6" rx="6" fill="#050814"/>
<circle cx="243" cy="513" r="6.12" fill="#050814" />
<circle cx="279" cy="513" r="6.12" fill="#050814" />
<circle cx="333" cy="513" r="6.12" fill="#050814" />
<path fill="#050814" d="M 351 506.2
      L 357.8 513
      L 351 519.8
      L 344.2 513 Z" />
<circle cx="387" cy="513" r="6.12" fill="#050814" />
<path fill="#050814" d="M 405 506.2
      L 411.8 513
      L 405 519.8
      L 398.2 513 Z" />
<rect x="433.2" y="505.2" width="15.6" height="15.6" rx="6" fill="#050814"/>
<rect x="451.2" y="505.2" width="15.6" height="15.6" rx="6" fill="#050814"/>
<rect x="469.2" y="505.2" width="15.6" height="15.6" rx="6" fill="#050814"/>
<path fill="#050814" d="M 495 506.2
      L 501.8 513
      L 495 519.8
      L 488.2 513 Z" />
<circle cx="513" cy="513" r="6.12" fill="#050814" />
<path fill="#050814" d="M 531 506.2
      L 537.8 513
      L 531 519.8
      L 524.2 513 Z" />
<circle cx="567" cy="513" r="6.12" fill="#050814" />
<circle cx="585" cy="513" r="6.12" fill="#050814" />
<circle cx="225" cy="531" r="6.12" fill="#050814" />
<path fill="#050814" d="M 243 524.2
      L 249.8 531
      L 243 537.8
      L 236.2 531 Z" />
<path fill="#050814" d="M 279 524.2
      L 285.8 531
      L 279 537.8
      L 272.2 531 Z" />
<rect x="307.2" y="523.2" width="15.6" height="15.6" rx="6" fill="#050814"/>
<path fill="#050814" d="M 369 524.2
      L 375.8 531
      L 369 537.8
      L 362.2 531 Z" />
<rect x="397.2" y="523.2" width="15.6" height="15.6" rx="6" fill="#050814"/>
<path fill="#050814" d="M 423 524.2
      L 429.8 531
      L 423 537.8
      L 416.2 531 Z" />
<circle cx="441" cy="531" r="6.12" fill="#050814" />
<circle cx="459" cy="531" r="6.12" fill="#050814" />
<circle cx="477" cy="531" r="6.12" fill="#050814" />
<rect x="505.2" y="523.2" width="15.6" height="15.6" rx="6" fill="#050814"/>
<circle cx="531" cy="531" r="6.12" fill="#050814" />
<rect x="577.2" y="523.2" width="15.6" height="15.6" rx="6" fill="#050814"/>
<rect x="271.2" y="541.2" width="15.6" height="15.6" rx="6" fill="#050814"/>
<path fill="#050814" d="M 297 542.2
      L 303.8 549
      L 297 555.8
      L 290.2 549 Z" />
<circle cx="315" cy="549" r="6.12" fill="#050814" />
<path fill="#050814" d="M 423 542.2
      L 429.8 549
      L 423 555.8
      L 416.2 549 Z" />
<rect x="433.2" y="541.2" width="15.6" height="15.6" rx="6" fill="#050814"/>
<path fill="#050814" d="M 513 542.2
      L 519.8 549
      L 513 555.8
      L 506.2 549 Z" />
<circle cx="585" cy="549" r="6.12" fill="#050814" />
<circle cx="243" cy="567" r="6.12" fill="#050814" />
<path fill="#050814" d="M 315 560.2
      L 321.8 567
      L 315 573.8
      L 308.2 567 Z" />
<rect x="325.2" y="559.2" width="15.6" height="15.6" rx="6" fill="#050814"/>
<rect x="343.2" y="559.2" width="15.6" height="15.6" rx="6" fill="#050814"/>
<rect x="379.2" y="559.2" width="15.6" height="15.6" rx="6" fill="#050814"/>
<rect x="415.2" y="559.2" width="15.6" height="15.6" rx="6" fill="#050814"/>
<circle cx="477" cy="567" r="6.12" fill="#050814" />
<circle cx="495" cy="567" r="6.12" fill="#050814" />
<circle cx="567" cy="567" r="6.12" fill="#050814" />
<rect x="235.2" y="577.2" width="15.6" height="15.6" rx="6" fill="#050814"/>
<rect x="253.2" y="577.2" width="15.6" height="15.6" rx="6" fill="#050814"/>
<circle cx="297" cy="585" r="6.12" fill="#050814" />
<circle cx="369" cy="585" r="6.12" fill="#050814" />
<rect x="469.2" y="577.2" width="15.6" height="15.6" rx="6" fill="#050814"/>
<rect x="505.2" y="577.2" width="15.6" height="15.6" rx="6" fill="#050814"/>
<rect x="523.2" y="577.2" width="15.6" height="15.6" rx="6" fill="#050814"/>
<rect x="559.2" y="577.2" width="15.6" height="15.6" rx="6" fill="#050814"/>
  
    <g>
      <rect
        x="288"
        y="288"
        width="90"
        height="90"
        rx="18"
        fill="#ffffff"
      />
      <g fill="#050814">
        <rect x="313" y="299" width="13" height="68" rx="5" />
        <rect x="313" y="299" width="42" height="10" rx="5" />
        <rect x="313" y="325" width="31" height="10" rx="5" />
      </g>
      <rect
        x="300"
        y="300"
        width="66"
        height="66"
        rx="16"
        fill="none"
        stroke="rgba(5,8,20,0.18)"
        stroke-width="3"
      />
    </g>
  
</svg>